<svg version="1.1" id="Layer_1" xmlns="http://www.w3.org/2000/svg" xmlns:xlink="http://www.w3.org/1999/xlink" x="0px" y="0px" viewBox="0 0 500 500" style="width: 142px;" xml:space="preserve" data-imageid="online-payment-1-21" imageName="Online Payment 1" class="illustrations_image">
<style type="text/css">
	.st0_online-payment-1-21{fill:#093F68;}
	.st1_online-payment-1-21{fill:#68E1FD;}
	.st2_online-payment-1-21{fill:#FFFFFF;}
	.st3_online-payment-1-21{fill:#DFEAEF;}
	.st4_online-payment-1-21{fill:#70CC40;}
	.st5_online-payment-1-21{fill:#F56132;}
	.st6_online-payment-1-21{fill:#FFBC0E;}
</style>
<g id="device_online-payment-1-21">
	<path class="st0_online-payment-1-21" d="M78.6,401.7h342.3l0,0v6.3c0,6.6-5.4,12-12,12H90.6c-6.6,0-12-5.4-12-12L78.6,401.7L78.6,401.7z"/>
	<path class="st0_online-payment-1-21" d="M409.6,421.8H89.9c-7.2,0-13-5.9-13.1-13.1v-7c0-1,0.8-1.8,1.8-1.8h0h342.3c1,0,1.8,0.8,1.8,1.8l0,0v7&#xA;&#9;&#9;C422.7,415.9,416.9,421.8,409.6,421.8z M80.4,403.5v5.2c0,5.2,4.2,9.4,9.4,9.4h319.8c5.2,0,9.4-4.2,9.4-9.4v-5.2H80.4z"/>
	<path class="st1_online-payment-1-21 targetColor" d="M122.3,117.1h254.9c7.7,0,14,6.3,14,14v162.1c0,7.7-6.3,14-14,14H122.3c-7.7,0-14-6.3-14-14V131.1&#xA;&#9;&#9;C108.3,123.4,114.6,117.1,122.3,117.1z" style="fill: rgb(104, 225, 253);"/>
	<path class="st0_online-payment-1-21" d="M376,309H123.5c-9.4,0-17-7.6-17-17l0,0V132.3c0-9.4,7.6-17,17-17H376c9.4,0,17,7.6,17,17V292&#xA;&#9;&#9;C393,301.4,385.4,309,376,309L376,309z M123.5,118.9c-7.4,0-13.4,6-13.4,13.4V292c0,7.4,6,13.3,13.4,13.4H376&#xA;&#9;&#9;c7.4,0,13.3-6,13.4-13.4V132.3c0-7.4-6-13.3-13.4-13.4H123.5z"/>
	<path class="st2_online-payment-1-21" d="M381.7,307.2h-264c-5.6,0-10.5,3.3-12,8l-26.6,82.4c-2.3,7.1,3.7,14.1,12,14.1h317.3c8.3,0,14.3-7.1,12-14.1&#xA;&#9;&#9;l-26.6-82.3C392.2,310.4,387.3,307.2,381.7,307.2z"/>
	<path class="st0_online-payment-1-21" d="M408.4,413.5H91.1c-4.7,0.1-9.2-2.1-12-5.8c-2.3-3.1-2.9-7-1.8-10.7l26.6-82.4c1.8-5.5,7.4-9.3,13.8-9.3h264&#xA;&#9;&#9;c6.3,0,12,3.8,13.8,9.3l26.6,82.4c1.2,3.6,0.5,7.6-1.8,10.7C417.5,411.4,413.1,413.6,408.4,413.5z M117.8,309&#xA;&#9;&#9;c-4.8,0-9,2.8-10.3,6.8l-26.6,82.3c-0.8,2.5-0.4,5.3,1.2,7.4c2.1,2.8,5.5,4.4,9,4.3h317.3c3.5,0.1,6.9-1.5,9-4.3&#xA;&#9;&#9;c1.6-2.1,2.1-4.9,1.2-7.4L392,315.8c-1.3-4-5.5-6.8-10.3-6.8L117.8,309z"/>
	<rect x="127.5" y="134.4" class="st0_online-payment-1-21" width="244.5" height="155.4"/>
	<path class="st0_online-payment-1-21" d="M372,291.6H127.5c-1,0-1.8-0.8-1.8-1.8l0,0V134.4c0-1,0.8-1.8,1.8-1.8c0,0,0,0,0,0H372c1,0,1.8,0.8,1.8,1.8&#xA;&#9;&#9;c0,0,0,0,0,0v155.4C373.8,290.8,373,291.6,372,291.6L372,291.6z M129.3,288h240.9V136.3H129.3V288z"/>
	<path class="st3_online-payment-1-21" d="M378.2,369.8H121.3c-2.9,0.1-5.7-1.2-7.5-3.5c-1.3-1.7-1.7-3.9-1.1-5.9l11.6-37.9c1-3.3,4.6-5.6,8.6-5.6h233.5&#xA;&#9;&#9;c4,0,7.6,2.3,8.6,5.6l11.6,37.9c0.6,2,0.2,4.3-1.1,5.9C383.9,368.6,381.1,369.9,378.2,369.8z M133,320.5c-2.4,0-4.6,1.3-5.1,3.1&#xA;&#9;&#9;l-11.7,37.9c-0.3,0.9-0.1,1.9,0.5,2.7c1.1,1.4,2.8,2.1,4.6,2h256.8c1.8,0.1,3.5-0.7,4.6-2c0.6-0.8,0.8-1.8,0.5-2.7l-11.6-37.9&#xA;&#9;&#9;c-0.5-1.8-2.7-3.1-5.1-3.1H133z"/>
	<path class="st3_online-payment-1-21" d="M290.2,403.5h-80.8c-0.5,0-1.1-0.2-1.4-0.7c-0.4-0.4-0.5-1-0.4-1.5l4.8-24.5c0.2-0.9,0.9-1.5,1.8-1.5h71.2&#xA;&#9;&#9;c0.9,0,1.6,0.6,1.8,1.5l4.9,24.5c0.1,0.5,0,1.1-0.4,1.5C291.3,403.3,290.7,403.6,290.2,403.5z M211.5,399.9H288l-4.2-20.9h-68.2&#xA;&#9;&#9;L211.5,399.9z"/>
</g>
<g id="bill_online-payment-1-21">
	<polygon class="st2_online-payment-1-21" points="334,80 334,289.8 165.5,289.8 165.5,80 179.6,92.4 193.6,80 207.6,92.4 221.7,80 235.7,92.4 249.8,80 &#xA;&#9;&#9;263.8,92.4 277.9,80 291.9,92.4 306,80 320,92.4 &#9;"/>
	<path class="st0_online-payment-1-21" d="M334,291.6H165.5c-1,0-1.8-0.8-1.8-1.8V80c0-1,0.9-1.8,1.9-1.8c0.4,0,0.8,0.2,1.1,0.4l12.9,11.3l12.9-11.2&#xA;&#9;&#9;c0.7-0.6,1.7-0.6,2.4,0l12.8,11.3l12.9-11.3c0.7-0.6,1.7-0.6,2.4,0l12.9,11.3l12.9-11.3c0.7-0.6,1.7-0.6,2.4,0l12.9,11.3l12.8-11.3&#xA;&#9;&#9;c0.7-0.6,1.7-0.6,2.4,0l12.8,11.3l12.9-11.3c0.7-0.6,1.7-0.6,2.4,0L320,89.9l12.8-11.3c0.8-0.6,1.9-0.5,2.6,0.2&#xA;&#9;&#9;c0.3,0.3,0.4,0.7,0.4,1.1v209.8C335.8,290.8,335,291.6,334,291.6z M167.3,288h164.8V84.1l-11,9.7c-0.7,0.6-1.7,0.6-2.4,0L306,82.5&#xA;&#9;&#9;l-12.9,11.3c-0.7,0.6-1.7,0.6-2.4,0l-12.8-11.3L265,93.7c-0.7,0.6-1.7,0.6-2.4,0l-12.8-11.3l-12.9,11.3c-0.7,0.6-1.7,0.6-2.4,0&#xA;&#9;&#9;l-12.9-11.3l-12.8,11.3c-0.7,0.6-1.7,0.6-2.4,0l-12.8-11.3l-12.8,11.3c-0.7,0.6-1.7,0.6-2.4,0l-11-9.7L167.3,288z"/>
	<path class="st4_online-payment-1-21" d="M205.3,228.8h90.3c11.1,0,20,9,20,20v4c0,11.1-9,20-20,20h-90.3c-11.1,0-20-9-20-20v-4&#xA;&#9;&#9;C185.2,237.8,194.2,228.8,205.3,228.8z"/>
	<path class="st0_online-payment-1-21" d="M293.6,274.6h-86.4c-13.2-0.3-23.6-11.2-23.3-24.3c0.3-12.8,10.6-23.1,23.3-23.3h86.4&#xA;&#9;&#9;c13.2-0.3,24.1,10.2,24.3,23.3c0.3,13.2-10.2,24.1-23.3,24.3C294.3,274.7,294,274.7,293.6,274.6z M207.2,230.6&#xA;&#9;&#9;c-11.2,0-20.2,9-20.2,20.2s9,20.2,20.2,20.2h86.4c11.2,0,20.2-9,20.2-20.2s-9-20.2-20.2-20.2H207.2z"/>
	<path class="st0_online-payment-1-21" d="M226.6,240.5h7.6c1,0,2,0.1,3,0.3c0.9,0.2,1.7,0.5,2.5,1c0.7,0.5,1.3,1.1,1.7,1.9c0.4,0.9,0.7,2,0.6,3&#xA;&#9;&#9;c0,1-0.2,2.1-0.6,3c-0.3,0.8-0.9,1.4-1.6,1.9c-0.7,0.5-1.5,0.8-2.4,1c-1,0.2-2,0.3-3,0.3h-3.3v7.9h-4.5V240.5z M231.1,249.1h3&#xA;&#9;&#9;c0.4,0,0.8,0,1.2-0.1c0.4-0.1,0.7-0.2,1-0.4c0.3-0.2,0.6-0.4,0.7-0.8c0.2-0.4,0.3-0.8,0.3-1.2c0-0.4-0.1-0.9-0.4-1.3&#xA;&#9;&#9;c-0.2-0.3-0.6-0.6-0.9-0.7c-0.4-0.2-0.8-0.3-1.2-0.3c-0.4,0-0.9-0.1-1.3-0.1h-2.3L231.1,249.1z"/>
	<path class="st0_online-payment-1-21" d="M249.4,240.5h3.7l8.9,20.4h-5.1l-1.8-4.3h-7.9l-1.7,4.3h-4.9L249.4,240.5z M251.1,246.4l-2.5,6.3h5&#xA;&#9;&#9;L251.1,246.4z"/>
	<path class="st0_online-payment-1-21" d="M266.9,252.1l-7.7-11.7h5.6l4.3,7.6l4.6-7.6h5.3l-7.7,11.7v8.7h-4.5L266.9,252.1z"/>
	<path class="st3_online-payment-1-21" d="M288.3,110.7h-71.2c-1-0.1-1.8-1-1.7-2c0.1-0.9,0.8-1.6,1.7-1.7h71.2c1,0.1,1.8,1,1.7,2&#xA;&#9;&#9;C289.9,109.9,289.2,110.6,288.3,110.7L288.3,110.7z"/>
	<path class="st3_online-payment-1-21" d="M249.3,134.9h-53.8c-1-0.1-1.8-1-1.7-2c0.1-0.9,0.8-1.6,1.7-1.7h53.8c1-0.1,1.9,0.7,2,1.7c0.1,1-0.7,1.9-1.7,2&#xA;&#9;&#9;C249.5,134.9,249.4,134.9,249.3,134.9z"/>
	<path class="st3_online-payment-1-21" d="M305.4,134.9h-24.3c-1-0.1-1.8-1-1.7-2c0.1-0.9,0.8-1.6,1.7-1.7h24.3c1,0.1,1.8,1,1.7,2&#xA;&#9;&#9;C307,134.2,306.3,134.9,305.4,134.9z"/>
	<path class="st3_online-payment-1-21" d="M244,153.3h-17.3c-1-0.1-1.8-1-1.7-2c0.1-0.9,0.8-1.6,1.7-1.7H244c1,0.1,1.8,1,1.7,2&#xA;&#9;&#9;C245.6,152.5,244.9,153.2,244,153.3z"/>
	<path class="st3_online-payment-1-21" d="M217.1,153.3h-21.6c-1-0.1-1.8-1-1.7-2c0.1-0.9,0.8-1.6,1.7-1.7h21.6c1,0.1,1.8,1,1.7,2&#xA;&#9;&#9;C218.7,152.5,218,153.2,217.1,153.3z"/>
	<path class="st3_online-payment-1-21" d="M305.4,153.3h-18.9c-1,0.1-1.9-0.7-2-1.7c-0.1-1,0.7-1.9,1.7-2c0.1,0,0.2,0,0.3,0h18.9c1,0.1,1.8,1,1.7,2&#xA;&#9;&#9;C307,152.5,306.3,153.2,305.4,153.3z"/>
	<path class="st3_online-payment-1-21" d="M237.4,171.6h-41.9c-1,0-1.8-0.8-1.8-1.8c0-1,0.8-1.8,1.8-1.8h41.9c1,0,1.8,0.8,1.8,1.8&#xA;&#9;&#9;C239.2,170.8,238.4,171.6,237.4,171.6z"/>
	<path class="st3_online-payment-1-21" d="M305.4,171.6h-24.3c-1,0-1.8-0.8-1.8-1.8c0-1,0.8-1.8,1.8-1.8h24.3c1,0,1.8,0.8,1.8,1.8&#xA;&#9;&#9;C307.2,170.8,306.4,171.6,305.4,171.6z"/>
	<path class="st3_online-payment-1-21" d="M305.4,192.4H195.5c-1,0-1.8-0.8-1.8-1.8c0-1,0.8-1.8,1.8-1.8h109.9c1,0,1.8,0.8,1.8,1.8&#xA;&#9;&#9;C307.2,191.6,306.4,192.4,305.4,192.4z"/>
	<path class="st3_online-payment-1-21" d="M305.4,211.4h-26.3c-1,0-1.8-0.8-1.8-1.8s0.8-1.8,1.8-1.8c0,0,0,0,0,0h26.3c1,0,1.8,0.8,1.8,1.8&#xA;&#9;&#9;C307.2,210.6,306.4,211.4,305.4,211.4z"/>
</g>
<g id="card_online-payment-1-21">
	<path class="st5_online-payment-1-21" d="M98.8,154.5H179c3.5,0,6.2,2.8,6.2,6.2v48.4c0,3.5-2.8,6.2-6.2,6.2H98.8c-3.5,0-6.2-2.8-6.2-6.2v-48.4&#xA;&#9;&#9;C92.6,157.3,95.3,154.5,98.8,154.5z"/>
	<path class="st0_online-payment-1-21" d="M179.4,217.2H98.4c-4.3,0-7.7-3.4-7.7-7.7v-49.1c0-4.3,3.4-7.7,7.7-7.7h80.9c4.3,0,7.7,3.4,7.7,7.7v49.1&#xA;&#9;&#9;C187.1,213.7,183.6,217.2,179.4,217.2z M98.4,156.3c-2.2,0-4,1.8-4.1,4v49.1c0,2.2,1.8,4.1,4.1,4.1h80.9c2.2,0,4.1-1.8,4.1-4.1&#xA;&#9;&#9;v-49.1c0-2.2-1.8-4-4.1-4L98.4,156.3z"/>
	<rect x="92.6" y="166.8" class="st2_online-payment-1-21" width="92.7" height="12.5"/>
	<path class="st0_online-payment-1-21" d="M185.2,181.1H92.6c-1,0-1.8-0.8-1.8-1.8c0,0,0,0,0,0v-12.5c0-1,0.8-1.8,1.8-1.8c0,0,0,0,0,0h92.7&#xA;&#9;&#9;c1,0,1.8,0.8,1.8,1.8c0,0,0,0,0,0v12.5C187.1,180.2,186.2,181.1,185.2,181.1C185.2,181.1,185.2,181.1,185.2,181.1z M94.4,177.4h89&#xA;&#9;&#9;v-8.8h-89V177.4z"/>
	<circle class="st2_online-payment-1-21" cx="155.7" cy="199.9" r="8.1"/>
	<circle class="st2_online-payment-1-21" cx="170" cy="199.9" r="8.1"/>
</g>
<g id="cursor_online-payment-1-21">
	<polygon class="st6_online-payment-1-21" points="366.9,269.3 354.1,282.1 374.9,302.8 361.3,316.4 340.5,295.6 327.8,308.5 319.3,260.8 &#9;"/>
	<path class="st0_online-payment-1-21" d="M361.3,318.2c-0.5,0-0.9-0.2-1.3-0.5l-19.5-19.4L329,309.7c-0.5,0.5-1.2,0.7-1.8,0.5c-0.6-0.2-1.1-0.8-1.2-1.4&#xA;&#9;&#9;l-8.4-47.6c-0.1-0.6,0.1-1.2,0.5-1.6c0.4-0.4,1-0.6,1.6-0.5l47.6,8.4c1,0.2,1.7,1.1,1.5,2.1c-0.1,0.4-0.2,0.7-0.5,1l-11.5,11.5&#xA;&#9;&#9;l19.4,19.4c0.7,0.7,0.7,1.8,0,2.6c0,0,0,0,0,0l-13.6,13.6C362.2,318,361.8,318.2,361.3,318.2z M340.5,293.8c0.5,0,0.9,0.2,1.3,0.5&#xA;&#9;&#9;l19.4,19.4l11-11l-19.4-19.4c-0.7-0.7-0.7-1.8,0-2.6c0,0,0,0,0,0l10.3-10.3l-41.6-7.4l7.4,41.6l10.3-10.3&#xA;&#9;&#9;C339.6,294,340.1,293.8,340.5,293.8L340.5,293.8z"/>
</g>
</svg>