<svg version="1.1" id="Layer_1" xmlns="http://www.w3.org/2000/svg" xmlns:xlink="http://www.w3.org/1999/xlink" x="0px" y="0px" viewBox="0 0 500 500" style="width: 142px;" xml:space="preserve" data-imageid="transaction-28" imageName="Transaction" class="illustrations_image">
<style type="text/css">
	.st0_transaction-28{fill:#68E1FD;}
	.st1_transaction-28{fill:#231F20;}
	.st2_transaction-28{fill:#FFFFFF;}
	.st3_transaction-28{fill:#D1D3D4;}
</style>
<g id="Phone_2_transaction-28">
	<polygon class="st0_transaction-28 targetColor" points="379.2,353.3 414.3,378.9 428.6,121.1 389.7,138.2 &#9;" style="fill: rgb(104, 225, 253);"/>
	<path class="st1_transaction-28" d="M414.3,379.6c-0.1,0-0.3,0-0.4-0.1l-35.1-25.6c-0.2-0.1-0.3-0.4-0.3-0.6L389,138.2c0-0.3,0.2-0.5,0.4-0.6&#xA;&#9;&#9;l38.9-17.1c0.2-0.1,0.5-0.1,0.7,0.1c0.2,0.1,0.3,0.4,0.3,0.6L415,378.9c0,0.3-0.2,0.5-0.4,0.6C414.5,379.5,414.4,379.6,414.3,379.6&#xA;&#9;&#9;z M380,352.9l33.7,24.6l14.2-255.3l-37.4,16.4L380,352.9L380,352.9z"/>
	<polygon class="st0_transaction-28 targetColor" points="414.3,378.9 433.1,378.3 445.2,128.3 428.6,121.1 &#9;" style="fill: rgb(104, 225, 253);"/>
	<path class="st1_transaction-28" d="M414.3,379.6c-0.2,0-0.4-0.1-0.5-0.2c-0.1-0.1-0.2-0.3-0.2-0.5l14.3-257.7c0-0.4,0.3-0.7,0.7-0.7&#xA;&#9;&#9;c0.1,0,0.2,0,0.3,0.1l16.6,7.2c0.3,0.1,0.4,0.4,0.4,0.7l-12.1,250c0,0.4-0.3,0.7-0.7,0.7L414.3,379.6L414.3,379.6z M429.2,122.2&#xA;&#9;&#9;l-14.2,256l17.4-0.5l12-248.9L429.2,122.2L429.2,122.2z"/>
	<polygon class="st2_transaction-28" points="422.1,134.6 410.9,345.6 384.4,327 394.6,145.7 &#9;"/>
	<path class="st1_transaction-28" d="M422.1,134.6l-11.2,211L384.4,327l10.2-181.3L422.1,134.6 M422.1,133.2c-0.2,0-0.4,0-0.5,0.1l-27.5,11.1&#xA;&#9;&#9;c-0.5,0.2-0.8,0.7-0.9,1.2L383,326.9c0,0.5,0.2,0.9,0.6,1.2l26.5,18.6c0.2,0.2,0.5,0.3,0.8,0.2c0.2,0,0.4,0,0.6-0.1&#xA;&#9;&#9;c0.5-0.2,0.8-0.7,0.8-1.2l11.2-211c0-0.5-0.2-0.9-0.6-1.2C422.7,133.3,422.4,133.2,422.1,133.2L422.1,133.2L422.1,133.2z"/>
	<path class="st1_transaction-28" d="M395.7,359.8c-0.3,0-0.6,0-0.9-0.1c-2.6-0.9-4.6-5.6-4.6-10.8c0-3.6,1-6.5,2.6-7.6c0.7-0.5,1.6-0.7,2.5-0.4&#xA;&#9;&#9;c2.6,0.9,4.6,5.6,4.6,10.8c0,3.6-1,6.5-2.6,7.6C396.8,359.6,396.3,359.8,395.7,359.8L395.7,359.8z M394.4,342.1&#xA;&#9;&#9;c-0.3,0-0.6,0.1-0.8,0.3c-1.2,0.9-2,3.4-2,6.5c0,4.9,1.9,8.9,3.7,9.5c0.4,0.1,0.9,0.1,1.2-0.2c1.2-0.9,2-3.4,2-6.5&#xA;&#9;&#9;c0-4.9-1.9-8.9-3.7-9.5C394.7,342.1,394.5,342,394.4,342.1L394.4,342.1z"/>
	<path class="st1_transaction-28" d="M401.8,138.5c-0.3,0-0.5-0.2-0.6-0.4c-0.1-0.4,0-0.8,0.4-0.9c0,0,0,0,0,0l6.4-2.6c0.4-0.1,0.8,0.1,0.9,0.5&#xA;&#9;&#9;c0.1,0.3,0,0.7-0.3,0.8l-6.4,2.6C402,138.4,401.9,138.4,401.8,138.5L401.8,138.5z"/>
	<path class="st1_transaction-28" d="M410.4,134.7c-0.3,0-0.5-0.2-0.6-0.4c-0.2-0.4,0-0.8,0.4-0.9l1.2-0.5c0.4-0.2,0.8,0,0.9,0.4s0,0.8-0.4,0.9&#xA;&#9;&#9;l-1.2,0.5C410.6,134.7,410.5,134.7,410.4,134.7L410.4,134.7z"/>
</g>
<g id="Phone_1_transaction-28">
	<polygon class="st0_transaction-28 targetColor" points="120.8,353.3 85.7,378.9 71.4,121.1 110.3,138.2 &#9;" style="fill: rgb(104, 225, 253);"/>
	<path class="st1_transaction-28" d="M85.7,379.6c-0.1,0-0.2,0-0.3-0.1c-0.2-0.1-0.4-0.3-0.4-0.6L70.7,121.2c0-0.2,0.1-0.5,0.3-0.6&#xA;&#9;&#9;c0.2-0.1,0.5-0.2,0.7-0.1l38.8,17.1c0.2,0.1,0.4,0.3,0.4,0.6l10.5,215.1c0,0.2-0.1,0.5-0.3,0.6l-35.1,25.6&#xA;&#9;&#9;C86,379.5,85.9,379.6,85.7,379.6z M72.2,122.2l14.2,255.3l33.7-24.5l-10.5-214.3L72.2,122.2L72.2,122.2z"/>
	<polygon class="st0_transaction-28 targetColor" points="85.7,378.9 66.9,378.3 54.8,128.3 71.4,121.1 &#9;" style="fill: rgb(104, 225, 253);"/>
	<path class="st1_transaction-28" d="M85.7,379.6L85.7,379.6L66.9,379c-0.4,0-0.7-0.3-0.7-0.7l-12.1-250c0-0.3,0.2-0.6,0.4-0.7l16.6-7.2&#xA;&#9;&#9;c0.3-0.2,0.8,0,0.9,0.3c0,0.1,0.1,0.2,0.1,0.3l14.3,257.7c0,0.2-0.1,0.4-0.2,0.5C86.1,379.5,85.9,379.6,85.7,379.6L85.7,379.6z&#xA;&#9;&#9; M67.6,377.6l17.4,0.5l-14.2-256l-15.2,6.6L67.6,377.6L67.6,377.6z"/>
	<polygon class="st2_transaction-28" points="77.9,134.6 89.1,345.6 115.6,327 105.4,145.7 &#9;"/>
	<path class="st1_transaction-28" d="M77.9,134.6l27.5,11.1L115.6,327l-26.5,18.6L77.9,134.6 M77.9,133.2c-0.8,0-1.4,0.6-1.4,1.4c0,0,0,0.1,0,0.1&#xA;&#9;&#9;l11.2,211c0,0.5,0.3,1,0.8,1.2c0.2,0.1,0.4,0.1,0.6,0.1c0.3,0,0.6-0.1,0.8-0.2l26.5-18.6c0.4-0.3,0.6-0.7,0.6-1.2l-10.2-181.3&#xA;&#9;&#9;c0-0.5-0.4-1-0.9-1.2l-27.5-11.1C78.2,133.2,78.1,133.2,77.9,133.2L77.9,133.2L77.9,133.2z"/>
	<path class="st1_transaction-28" d="M104.3,359.8c-0.6,0-1.2-0.2-1.6-0.5c-1.6-1.2-2.6-4.1-2.6-7.6c0-5.2,2-9.9,4.6-10.8c0.8-0.3,1.8-0.1,2.5,0.4&#xA;&#9;&#9;c1.6,1.2,2.6,4.1,2.6,7.6c0,5.2-2,9.9-4.6,10.8C104.9,359.7,104.6,359.8,104.3,359.8L104.3,359.8z M105.6,342.1&#xA;&#9;&#9;c-0.1,0-0.3,0-0.4,0.1c-1.8,0.6-3.7,4.5-3.7,9.5c0,3.1,0.8,5.6,2,6.5c0.3,0.3,0.8,0.4,1.2,0.2c1.8-0.6,3.7-4.5,3.7-9.5&#xA;&#9;&#9;c0-3.1-0.8-5.6-2-6.5C106.2,342.2,105.9,342.1,105.6,342.1L105.6,342.1z"/>
	<path class="st1_transaction-28" d="M98.2,138.5c-0.1,0-0.2,0-0.3,0l-6.4-2.6c-0.3-0.2-0.5-0.6-0.3-0.9c0.2-0.3,0.5-0.4,0.8-0.3l6.4,2.6&#xA;&#9;&#9;c0.4,0.2,0.5,0.6,0.4,0.9C98.7,138.4,98.5,138.5,98.2,138.5L98.2,138.5z"/>
	<path class="st1_transaction-28" d="M89.6,134.7c-0.1,0-0.2,0-0.3-0.1l-1.2-0.5c-0.4-0.2-0.5-0.6-0.3-0.9c0.2-0.4,0.6-0.5,0.9-0.3l1.2,0.5&#xA;&#9;&#9;c0.4,0.2,0.5,0.6,0.4,0.9C90.1,134.5,89.9,134.7,89.6,134.7z"/>
</g>
<g id="Hand_1_transaction-28">
	<path class="st2_transaction-28" d="M136.6,225c0,0,13,3.2,20.3,0.1s9.2-10,17.4-10.7s29.5-1.6,29.5-1.6l1.3-18.9c0,0-13.3-15.2-26.7-16.5&#xA;&#9;&#9;S144,196,136.5,198.7L136.6,225L136.6,225z"/>
	<path class="st1_transaction-28" d="M148.5,227.2c-4.1-0.1-8.1-0.6-12.1-1.5c-0.3-0.1-0.5-0.4-0.5-0.7v-26.4c0-0.3,0.2-0.6,0.5-0.7&#xA;&#9;&#9;c2.3-0.8,6.2-3.6,10.7-6.7c9.3-6.5,22.1-15.5,31.4-14.6c13.6,1.3,26.6,16.1,27.1,16.7c0.1,0.1,0.2,0.3,0.2,0.5l-1.3,19&#xA;&#9;&#9;c0,0.4-0.3,0.6-0.7,0.6c-0.2,0-21.4,0.9-29.5,1.6c-4.5,0.4-7,2.6-9.9,5.3c-2.1,2.2-4.6,4-7.4,5.3&#xA;&#9;&#9;C154.4,226.9,151.4,227.4,148.5,227.2L148.5,227.2z M137.3,224.5c2.5,0.6,13.2,2.7,19.3,0c2.6-1.3,5-3,7-5.1&#xA;&#9;&#9;c2.9-2.7,5.7-5.3,10.7-5.7c7.3-0.6,25.3-1.4,28.9-1.6l1.2-18c-1.7-1.8-13.9-14.9-26-16.1c-8.8-0.8-21.3,7.9-30.5,14.3&#xA;&#9;&#9;c-4.3,3-8.1,5.6-10.6,6.7L137.3,224.5L137.3,224.5z"/>
	<path class="st1_transaction-28" d="M97.9,243.8l40.6-10.3c0,0-4.6-22,0-38.2H93.8c0,0-4.7,9.2-2.8,25.4S97.9,243.8,97.9,243.8z"/>
	<path class="st1_transaction-28" d="M97.9,244.5c-0.2,0-0.4-0.1-0.6-0.3c-0.2-0.3-5.2-7.1-7.1-23.4s2.7-25.4,2.9-25.9c0.1-0.2,0.4-0.4,0.6-0.4&#xA;&#9;&#9;h44.7c0.2,0,0.4,0.1,0.6,0.3c0.1,0.2,0.2,0.4,0.1,0.6c-4.5,15.8,0,37.7,0,37.9c0.1,0.4-0.1,0.7-0.5,0.8l-40.6,10.3&#xA;&#9;&#9;C98,244.5,98,244.5,97.9,244.5L97.9,244.5z M94.2,196.1c-0.8,1.9-4.2,10.6-2.6,24.6c1.6,13.8,5.5,20.7,6.6,22.3l39.4-10&#xA;&#9;&#9;c-0.7-3.7-3.9-22.5-0.1-37L94.2,196.1L94.2,196.1z"/>
	<path class="st2_transaction-28" d="M172.6,188.7h68.8c2.1,0,3.8,1.7,3.8,3.8v40.7c0,2.1-1.7,3.8-3.8,3.8h-68.8c-2.1,0-3.8-1.7-3.8-3.8v-40.7&#xA;&#9;&#9;C168.8,190.4,170.5,188.7,172.6,188.7z"/>
	<path class="st1_transaction-28" d="M239.9,188.7c2.9,0,5.3,2.4,5.3,5.3v37.6c0,2.9-2.4,5.3-5.3,5.3h-65.8c-2.9,0-5.3-2.4-5.3-5.3v-37.6&#xA;&#9;&#9;c0-2.9,2.4-5.3,5.3-5.3H239.9 M239.9,187.3h-65.8c-3.7,0-6.7,3-6.7,6.7c0,0,0,0,0,0v37.7c0,3.7,3,6.7,6.7,6.7c0,0,0,0,0,0h65.8&#xA;&#9;&#9;c3.7,0,6.7-3,6.7-6.7c0,0,0,0,0,0v-37.7C246.6,190.3,243.6,187.3,239.9,187.3C239.9,187.3,239.9,187.3,239.9,187.3L239.9,187.3z"/>
	<rect x="168.8" y="198.3" class="st3_transaction-28" width="76.4" height="11.8"/>
	<path class="st2_transaction-28" d="M159.9,216.8c0,0,17.9,0.9,25.4-1.3s9-7.9,5.7-11.4s-11-0.2-20.2-1.4s-10.9-1.9-10.9-1.9"/>
	<path class="st1_transaction-28" d="M168.4,217.7c-4.6,0-8.2-0.2-8.5-0.2c-0.4,0-0.7-0.3-0.7-0.7c0,0,0,0,0,0c0-0.4,0.3-0.7,0.7-0.7c0,0,0,0,0.1,0&#xA;&#9;&#9;c0.2,0,17.8,0.9,25.2-1.2c3.6-1,6-3,6.7-5.4c0.4-1.7-0.1-3.5-1.3-4.8c-1.7-1.8-4.9-1.5-9.1-1.2c-3.6,0.4-7.2,0.4-10.7,0&#xA;&#9;&#9;c-9.1-1.3-11-1.9-11-1.9c-0.4-0.1-0.6-0.5-0.4-0.9c0.1-0.4,0.5-0.6,0.9-0.4l0,0c0.1,0,1.9,0.6,10.8,1.9c3.5,0.4,7,0.4,10.4,0&#xA;&#9;&#9;c4.5-0.4,8-0.6,10.2,1.6c1.6,1.6,2.2,3.9,1.7,6.1c-0.8,2.9-3.6,5.2-7.7,6.4S174.2,217.7,168.4,217.7L168.4,217.7z"/>
	<path class="st3_transaction-28" d="M222.3,233.1c-4.6,0-8.4-3.8-8.4-8.4s3.8-8.4,8.4-8.4s8.4,3.8,8.4,8.4c0,0,0,0,0,0&#xA;&#9;&#9;C230.7,229.4,227,233.1,222.3,233.1z M222.3,217.7c-3.9,0-7,3.1-7,7s3.1,7,7,7s7-3.1,7-7S226.2,217.7,222.3,217.7z"/>
	<path class="st3_transaction-28" d="M232.9,233.1c-4.6,0-8.4-3.8-8.4-8.4s3.8-8.4,8.4-8.4s8.4,3.8,8.4,8.4c0,0,0,0,0,0&#xA;&#9;&#9;C241.2,229.4,237.5,233.1,232.9,233.1z M232.9,217.7c-3.9,0-7,3.1-7,7s3.1,7,7,7s7-3.1,7-7S236.7,217.7,232.9,217.7z"/>
	<path class="st3_transaction-28" d="M180.7,224.4h-5.2c-0.4,0-0.7-0.3-0.7-0.7c0-0.4,0.3-0.7,0.7-0.7h5.2c0.4,0,0.7,0.3,0.7,0.7&#xA;&#9;&#9;C181.4,224,181,224.4,180.7,224.4z"/>
	<path class="st3_transaction-28" d="M189.3,224.4h-5.2c-0.4,0-0.7-0.3-0.7-0.7c0-0.4,0.3-0.7,0.7-0.7c0,0,0,0,0,0h5.2c0.4,0,0.7,0.3,0.7,0.7&#xA;&#9;&#9;C190,224,189.7,224.4,189.3,224.4C189.3,224.4,189.3,224.4,189.3,224.4z"/>
	<path class="st3_transaction-28" d="M198,224.4h-5.3c-0.4,0-0.7-0.3-0.7-0.7c0-0.4,0.3-0.7,0.7-0.7h5.3c0.4,0,0.7,0.3,0.7,0.7&#xA;&#9;&#9;C198.7,224,198.4,224.4,198,224.4z"/>
	<path class="st3_transaction-28" d="M206.6,224.4h-5.2c-0.4,0-0.7-0.3-0.7-0.7c0-0.4,0.3-0.7,0.7-0.7h5.2c0.4,0,0.7,0.3,0.7,0.7&#xA;&#9;&#9;C207.3,224,207,224.4,206.6,224.4z"/>
	<path class="st3_transaction-28" d="M192.7,231.2h-17.3c-0.4,0-0.7-0.3-0.7-0.7c0-0.4,0.3-0.7,0.7-0.7h17.3c0.4,0,0.7,0.3,0.7,0.7&#xA;&#9;&#9;C193.4,230.9,193.1,231.2,192.7,231.2z"/>
</g>
<g id="Hand_2_transaction-28">
	<rect x="262.3" y="240.1" class="st2_transaction-28" width="92.9" height="90.6"/>
	<path class="st1_transaction-28" d="M355.2,240.1v90.6h-92.9v-90.6H355.2 M355.2,238.7h-92.9c-0.8,0-1.4,0.6-1.4,1.4v90.6c0,0.8,0.6,1.4,1.4,1.4&#xA;&#9;&#9;h92.9c0.8,0,1.4-0.6,1.4-1.4v-90.6C356.6,239.3,356,238.7,355.2,238.7z"/>
	<path class="st2_transaction-28" d="M347.9,189.8c-3-3.5-7.8-5.1-12.4-5.9s-9.4-1.1-13.7-2.9c-3.2-1.3-6.1-3.3-9.5-3.6s-7.4,2.4-6.7,5.7&#xA;&#9;&#9;c0.4,1.8,1.9,3.1,3.4,4.2c3.1,2.3,6.3,4.4,9.6,6.3c-2.9-0.5-6.3-0.8-8.5,1.2c-1.9,1.7-2.2,4.5-2.3,7c-0.2,7.6,1,15.2,3.5,22.4&#xA;&#9;&#9;c0.8,2.4,1.9,4.9,4,6.3c2.3,1.6,5.4,1.7,8.2,1.7l44.8-0.3c1.9,0,0.6-29.4-2-32.4c-2.3-2.6-4.8-1.9-8-2.3&#xA;&#9;&#9;C352.7,196.7,351.2,193.7,347.9,189.8L347.9,189.8z"/>
	<path class="st1_transaction-28" d="M322.7,232.9c-2.5,0-5.5-0.1-7.8-1.8s-3.3-4.1-4.2-6.7c-2.5-7.3-3.8-14.9-3.6-22.6c0.1-2.6,0.4-5.6,2.5-7.5&#xA;&#9;&#9;c1.7-1.4,3.9-2,6-1.7c-2.4-1.5-4.7-3.1-6.9-4.7c-1.6-1.2-3.3-2.6-3.7-4.6c-0.3-1.5,0.2-3,1.2-4.1c1.6-1.7,3.9-2.6,6.2-2.5&#xA;&#9;&#9;c2.4,0.3,4.8,1.1,6.9,2.4c0.9,0.4,1.9,0.9,2.8,1.3c3.2,1.1,6.4,1.9,9.8,2.2c1.3,0.2,2.5,0.4,3.8,0.6c6.1,1.1,10.1,3.1,12.8,6.2&#xA;&#9;&#9;c0.5,0.6,1,1.2,1.4,1.7c2.5,3,4.1,5.1,8.6,5.5c0.7,0.1,1.4,0.1,2.1,0.1c2.2,0.1,4.4,0.1,6.4,2.4c2.6,3,4,29.3,2.4,32.8&#xA;&#9;&#9;c-0.1,0.4-0.5,0.7-0.9,0.7l-44.8,0.3L322.7,232.9L322.7,232.9z M314.8,194c-1.6-0.1-3.1,0.4-4.4,1.4c-1.7,1.5-2,4.1-2,6.5&#xA;&#9;&#9;c-0.2,7.5,1,15,3.5,22.2c0.8,2.3,1.8,4.6,3.7,6c2,1.5,4.8,1.6,7.8,1.6l44.5-0.3c1.2-2.9,0.1-28.6-2.2-31.2&#xA;&#9;&#9;c-1.6-1.8-3.2-1.8-5.4-1.9c-0.7,0-1.4-0.1-2.2-0.1c-5-0.5-7-3-9.5-6c-0.5-0.5-0.9-1.1-1.4-1.7l0,0c-2.5-2.8-6.3-4.6-12-5.7&#xA;&#9;&#9;c-1.2-0.2-2.5-0.4-3.7-0.6c-3.4-0.4-6.8-1.2-10.1-2.3c-1-0.4-2-0.9-2.9-1.3c-2-1.1-4.2-1.9-6.4-2.2c-1.9-0.1-3.8,0.6-5.1,2&#xA;&#9;&#9;c-0.7,0.8-1.1,1.8-0.9,2.9c0.3,1.6,1.8,2.8,3.2,3.8c3,2.2,6.2,4.4,9.5,6.3c0.3,0.2,0.4,0.5,0.3,0.8c-0.1,0.3-0.4,0.5-0.8,0.5&#xA;&#9;&#9;c-1.2-0.2-2.4-0.3-3.6-0.4L314.8,194z"/>
	<path class="st1_transaction-28" d="M286.4,248.9L286.4,248.9c-0.4,0-0.7-0.3-0.7-0.7c0,0,0,0,0,0c0-2.3,0.9-56.3,23-56.3c9.4,0,16.1,9.5,20,28.3&#xA;&#9;&#9;c1.8,9.2,2.8,18.5,3.1,27.9c0,0.4-0.3,0.7-0.7,0.7c0,0,0,0,0,0l0,0c-0.4,0-0.7-0.3-0.7-0.7c0-0.6-0.9-54.9-21.6-54.9&#xA;&#9;&#9;s-21.6,54.3-21.6,54.9C287.2,248.6,286.8,248.9,286.4,248.9L286.4,248.9z"/>
	<path class="st1_transaction-28" d="M400.8,242.1l-37.2-8.6c0,0,4.6-22,0-38.2l41.3-1.7c0,0,4.7,9.2,2.8,25.4S400.8,242.2,400.8,242.1L400.8,242.1&#xA;&#9;&#9;z"/>
	<path class="st1_transaction-28" d="M400.8,242.8c-0.1,0-0.1,0-0.2,0l-37.2-8.6c-0.4-0.1-0.6-0.4-0.5-0.8c0-0.2,4.5-22.1,0-37.9&#xA;&#9;&#9;c-0.1-0.2,0-0.4,0.1-0.6c0.1-0.2,0.3-0.3,0.5-0.3l41.3-1.7c0.3,0,0.5,0.1,0.6,0.4c0.2,0.4,4.8,9.5,2.9,25.8s-6.9,23.1-7.1,23.4&#xA;&#9;&#9;C401.2,242.8,401,242.9,400.8,242.8L400.8,242.8z M364.4,233l36.1,8.3c1-1.6,5-8.6,6.6-22.3c1.6-14-1.7-22.7-2.6-24.6l-40,1.7&#xA;&#9;&#9;C368.2,210.5,365.1,229.3,364.4,233L364.4,233z"/>
	<path class="st1_transaction-28" d="M336.7,226.7c-0.1,0-0.1,0-0.2,0c-13.1-3.9-15.1-11.7-15.2-12c-0.1-0.4,0.2-0.7,0.5-0.8&#xA;&#9;&#9;c0.4-0.1,0.7,0.1,0.8,0.5c0,0.1,2,7.3,14.2,11c0.4,0.1,0.6,0.5,0.5,0.9C337.3,226.5,337,226.7,336.7,226.7L336.7,226.7z"/>
	<path class="st2_transaction-28" d="M309.9,193.8c4.2-0.6,8.4-0.8,12.6-0.7c2.8,0.1,6.2,0.8,7,3.4c0.4,1.7-0.1,3.4-1.3,4.6&#xA;&#9;&#9;c-1.2,1.2-2.7,2.1-4.3,2.7c2.5,0,5.6,0.5,6.5,2.8c0.5,1.7-0.1,3.5-1.5,4.6c-1.4,1-3,1.8-4.6,2.1c2.8,0.5,6.2,1.7,6.5,4.5&#xA;&#9;&#9;s-2.7,4.4-5.3,5.3c0.8,1.5,3.1,1.1,4.3,2.2s0.9,3.2-0.3,4.3c-1.3,1-2.8,1.6-4.4,1.7c-3.3,0.4-6.6,0.5-9.9,0.3&#xA;&#9;&#9;c-2-0.1-4.3-0.4-5.7-1.9s-1.2-4.5,0.7-5.1c-3.3-0.2-5.9-3.1-5.6-6.5c0.1-1.5,0.8-2.9,1.9-4c-1.8-0.7-3.1-2.4-3.4-4.4&#xA;&#9;&#9;c-0.1-1.9,0.7-3.8,2.1-5C297.6,200.9,304.4,194.5,309.9,193.8L309.9,193.8z"/>
	<path class="st1_transaction-28" d="M319.1,232.5c-1.2,0-2.5-0.1-3.9-0.1c-2.3-0.1-4.6-0.5-6.1-2.1c-1-1.1-1.4-2.6-1-4c0.1-0.4,0.3-0.8,0.5-1.2&#xA;&#9;&#9;c-3.6-1.1-5.5-4.9-4.4-8.5c0.2-0.8,0.6-1.5,1.1-2.1c-1.6-1-2.7-2.7-2.9-4.5c-0.2-1.8,0.5-3.6,1.7-4.9c-2.8-1.7-3.1-3.7-2.9-5.1&#xA;&#9;&#9;c0.6-3.4,5-6.3,8.6-6.8l0,0c4.2-0.6,8.5-0.8,12.8-0.7c4.2,0.1,6.9,1.5,7.7,3.9c0.5,1.9-0.1,3.9-1.5,5.3c-0.7,0.7-1.4,1.2-2.2,1.7&#xA;&#9;&#9;c1.8,0.3,3.8,1.1,4.6,3.1s-0.4,4.2-1.7,5.4c-0.8,0.6-1.7,1.2-2.6,1.5c3.6,1.2,4.6,3.1,4.7,4.6c0.2,2.3-1.5,4.3-4.7,5.6&#xA;&#9;&#9;c0.4,0.2,0.8,0.3,1.2,0.4c0.8,0.1,1.6,0.5,2.3,1c0.6,0.6,1,1.4,1,2.3c0,1.2-0.4,2.3-1.3,3.1c-1.4,1.1-3.1,1.8-4.8,1.9&#xA;&#9;&#9;C323.1,232.4,321.1,232.5,319.1,232.5L319.1,232.5z M309.9,193.8l0.1,0.7c-3.1,0.4-6.9,2.9-7.4,5.6c-0.3,1.6,0.7,3,2.9,4.1&#xA;&#9;&#9;c0.2,0.1,0.3,0.3,0.4,0.5c0,0.2-0.1,0.5-0.2,0.6c-1.3,1.1-2,2.7-1.9,4.4c0.2,1.7,1.3,3.2,2.9,3.8c0.2,0.1,0.4,0.3,0.4,0.5&#xA;&#9;&#9;c0.1,0.2,0,0.5-0.2,0.6c-2.1,2.1-2.2,5.5-0.2,7.6c0.9,1,2.2,1.6,3.5,1.6c0.4,0,0.7,0.4,0.7,0.7c0,0.3-0.2,0.5-0.5,0.6&#xA;&#9;&#9;c-0.5,0.2-0.9,0.7-1.1,1.2c-0.2,1,0,2,0.6,2.7c1.2,1.3,3.2,1.6,5.2,1.7c3.2,0.2,6.5,0.2,9.7-0.2c1.5-0.1,2.9-0.6,4-1.5&#xA;&#9;&#9;c0.5-0.5,0.8-1.2,0.8-2c0-0.5-0.2-0.9-0.5-1.2c-0.5-0.4-1.1-0.6-1.8-0.7c-1.1-0.1-2.1-0.8-2.7-1.7c-0.1-0.2-0.1-0.4,0-0.6&#xA;&#9;&#9;c0.1-0.2,0.2-0.3,0.4-0.4c1.2-0.4,5-1.8,4.8-4.5c-0.2-2.4-3.3-3.4-5.9-3.9c-0.3-0.1-0.6-0.3-0.6-0.6c0-0.3,0.2-0.6,0.5-0.7&#xA;&#9;&#9;c1.6-0.4,3.1-1,4.4-2c1.2-0.9,1.7-2.4,1.3-3.8c-0.6-1.5-2.5-2.3-5.8-2.4c-0.3,0-0.6-0.2-0.7-0.6c-0.1-0.3,0.1-0.6,0.4-0.8&#xA;&#9;&#9;c1.5-0.6,2.8-1.4,4-2.5c1.1-1,1.5-2.5,1.2-3.9c-0.7-2.3-3.9-2.9-6.4-2.9c-4.2-0.1-8.4,0.1-12.5,0.7L309.9,193.8L309.9,193.8z"/>
	<path class="st1_transaction-28" d="M308.5,205.5c-0.4,0-0.7-0.3-0.7-0.7c0-0.4,0.3-0.7,0.7-0.7l15.5-1c0.4,0,0.7,0.2,0.7,0.6c0,0,0,0,0,0.1&#xA;&#9;&#9;c0,0.4-0.3,0.7-0.6,0.7L308.5,205.5L308.5,205.5L308.5,205.5z"/>
	<path class="st1_transaction-28" d="M310.6,214.8c-0.4,0-0.7-0.3-0.7-0.7c0-0.4,0.3-0.7,0.7-0.7l13.7-0.7c0.4,0,0.7,0.2,0.7,0.6c0,0,0,0,0,0&#xA;&#9;&#9;c0,0.4-0.3,0.7-0.7,0.7c0,0,0,0,0,0L310.6,214.8L310.6,214.8z"/>
	<path class="st1_transaction-28" d="M313.5,224.8c-0.4,0-0.7-0.3-0.7-0.6c0-0.4,0.3-0.7,0.6-0.8l11.9-0.9c0.4,0,0.7,0.2,0.7,0.6c0,0,0,0,0,0&#xA;&#9;&#9;c0,0.4-0.3,0.7-0.6,0.8L313.5,224.8L313.5,224.8L313.5,224.8z"/>
	<path class="st3_transaction-28" d="M292.1,264.3h-17.7c-0.4,0-0.7-0.3-0.7-0.7c0-0.4,0.3-0.7,0.7-0.7h17.7c0.4,0,0.7,0.3,0.7,0.7&#xA;&#9;&#9;C292.8,264,292.5,264.3,292.1,264.3z"/>
</g>
</svg>